<svg width="117" height="22" viewBox="0 0 117 22" fill="none" xmlns="http://www.w3.org/2000/svg">
<path d="M115.355 15.4012C115.313 15.4012 115.284 15.3759 115.267 15.3254L112.68 6.85772C112.663 6.83248 112.663 6.80724 112.68 6.782C112.705 6.75676 112.739 6.74414 112.781 6.74414H114.27C114.32 6.74414 114.354 6.76938 114.371 6.81986L116.996 15.275C117.013 15.3591 116.979 15.4012 116.895 15.4012H115.355ZM111.885 13.8868C111.818 14.1224 111.742 14.3621 111.658 14.6061C111.582 14.8501 111.51 15.0899 111.443 15.3254C111.426 15.3759 111.393 15.4012 111.342 15.4012H109.815C109.773 15.4012 109.74 15.3885 109.714 15.3633C109.697 15.3381 109.697 15.3086 109.714 15.275L112.049 7.70323C112.066 7.65275 112.099 7.62751 112.15 7.62751C112.2 7.62751 112.234 7.65275 112.251 7.70323L113.021 10.1514L112.352 12.2336H113.563C113.614 12.2336 113.647 12.2589 113.664 12.3094L114.106 13.7606C114.123 13.7943 114.119 13.8237 114.093 13.849C114.076 13.8742 114.047 13.8868 114.005 13.8868H111.885Z" fill="white"/>
<path d="M107.139 15.4012C107.08 15.4012 107.05 15.3676 107.05 15.3003V11.3251L108.527 9.23027C108.56 9.1882 108.598 9.17558 108.64 9.19241C108.691 9.20924 108.716 9.24289 108.716 9.29337V15.3003C108.716 15.3676 108.682 15.4012 108.615 15.4012H107.139ZM102.154 13.054C102.12 13.0961 102.082 13.1087 102.04 13.0919C101.998 13.075 101.977 13.0414 101.977 12.9909V6.84517C101.977 6.78628 102.011 6.75684 102.078 6.75684H103.529C103.597 6.75684 103.63 6.78628 103.63 6.84517V10.9465L102.154 13.054ZM102.078 15.4012C102.011 15.4012 101.977 15.3676 101.977 15.3003V14.4169L107.29 6.79469C107.298 6.77787 107.311 6.76946 107.328 6.76946C107.345 6.76104 107.361 6.75684 107.378 6.75684H108.615C108.682 6.75684 108.716 6.78628 108.716 6.84517V7.86736L103.454 15.3634C103.437 15.3886 103.407 15.4012 103.365 15.4012H102.078Z" fill="white"/>
<path d="M93.4087 13.849C93.4087 13.7816 93.4424 13.748 93.5097 13.748H94.1533L96.0084 7.70323C96.0252 7.65275 96.0588 7.62751 96.1093 7.62751C96.1598 7.62751 96.1934 7.65275 96.2103 7.70323L96.9927 10.1514L95.8948 13.748H101.031C101.098 13.748 101.132 13.7816 101.132 13.849V15.2876C101.132 15.3549 101.098 15.3885 101.031 15.3885H93.5097C93.4424 15.3885 93.4087 15.3549 93.4087 15.2876V13.849ZM98.6585 13.1801C98.608 13.1801 98.5743 13.1549 98.5575 13.1044L96.6393 6.85772C96.6225 6.83248 96.6225 6.80724 96.6393 6.782C96.6646 6.75676 96.6982 6.74414 96.7403 6.74414H98.242C98.2925 6.74414 98.3261 6.76938 98.343 6.81986L100.286 13.0539C100.303 13.0876 100.299 13.117 100.274 13.1423C100.257 13.1675 100.227 13.1801 100.185 13.1801H98.6585Z" fill="white"/>
<path d="M87.0812 15.3886C87.0139 15.3886 86.9802 15.355 86.9802 15.2877V6.84517C86.9802 6.78628 87.0139 6.75684 87.0812 6.75684H88.5829C88.6502 6.75684 88.6839 6.78628 88.6839 6.84517V15.2877C88.6839 15.355 88.6502 15.3886 88.5829 15.3886H87.0812ZM89.4284 15.3886C89.3611 15.3886 89.3275 15.355 89.3275 15.2877V13.8364C89.3275 13.7691 89.3611 13.7355 89.4284 13.7355H92.7095C92.7768 13.7355 92.8105 13.7691 92.8105 13.8364V15.2877C92.8105 15.355 92.7768 15.3886 92.7095 15.3886H89.4284ZM89.4284 8.41C89.3611 8.41 89.3275 8.37635 89.3275 8.30904V6.84517C89.3275 6.78628 89.3611 6.75684 89.4284 6.75684H92.7095C92.7768 6.75684 92.8105 6.78628 92.8105 6.84517V8.30904C92.8105 8.37635 92.7768 8.41 92.7095 8.41H89.4284ZM91.8892 10.2651C91.9565 10.2651 91.9902 10.2987 91.9902 10.366V11.8173C91.9902 11.8846 91.9565 11.9182 91.8892 11.9182H89.4284C89.3611 11.9182 89.3275 11.8846 89.3275 11.8173V10.366C89.3275 10.2987 89.3611 10.2651 89.4284 10.2651H91.8892Z" fill="white"/>
<path d="M83.7304 15.3886C83.6715 15.3886 83.6421 15.355 83.6421 15.2877V9.64672L83.2887 10.1389C83.2719 10.1641 83.2467 10.1767 83.213 10.1767C83.1878 10.1683 83.1668 10.1557 83.1499 10.1389L82.2539 8.96526C82.2287 8.92319 82.2287 8.88113 82.2539 8.83906L83.7809 6.79469C83.8061 6.76946 83.8314 6.75684 83.8566 6.75684H85.1817C85.249 6.75684 85.2826 6.78628 85.2826 6.84517V15.2877C85.2826 15.355 85.249 15.3886 85.1817 15.3886H83.7304ZM78.4302 15.3886C78.3629 15.3886 78.3293 15.355 78.3293 15.2877V8.88954C78.3293 8.83906 78.3503 8.80541 78.3924 8.78859C78.4344 8.77176 78.4723 8.78438 78.5059 8.82644L79.9824 10.7699V15.2877C79.9824 15.355 79.9488 15.3886 79.8815 15.3886H78.4302ZM81.888 12.0192C81.8711 12.0528 81.8459 12.0697 81.8123 12.0697C81.7786 12.0697 81.7534 12.0528 81.7365 12.0192L78.3293 7.48877V6.84517C78.3293 6.78628 78.3629 6.75684 78.4302 6.75684H79.73C79.7553 6.75684 79.7805 6.76946 79.8057 6.79469L82.7587 10.7068C82.784 10.7488 82.784 10.7909 82.7587 10.833L81.888 12.0192Z" fill="white"/>
<path d="M71.8074 10.9337C71.8074 10.8916 71.8242 10.8706 71.8578 10.8706H76.1485C76.1906 10.8706 76.2116 10.8916 76.2116 10.9337V12.2966C76.2116 12.3303 76.1906 12.3471 76.1485 12.3471H71.8578C71.8242 12.3471 71.8074 12.3303 71.8074 12.2966V10.9337Z" fill="white"/>
<path d="M66.0456 15.4388C65.6501 15.4388 65.28 15.3589 64.935 15.1991C64.5901 15.0308 64.2914 14.8121 64.0391 14.5428C63.7867 14.2736 63.5847 13.9708 63.4333 13.6342C63.2903 13.2977 63.2188 12.957 63.2188 12.6121V9.59598C63.2188 9.25945 63.2903 8.92714 63.4333 8.59903C63.5847 8.26251 63.7867 7.96385 64.0391 7.70304C64.2999 7.43382 64.6027 7.21509 64.9477 7.04683C65.2926 6.87856 65.6586 6.79443 66.0456 6.79443H66.1087C66.176 6.79443 66.2096 6.82388 66.2096 6.88277V8.27092C66.2096 8.33823 66.176 8.37188 66.1087 8.37188H66.0456C65.9194 8.37188 65.7848 8.40974 65.6417 8.48545C65.4987 8.55276 65.3641 8.6453 65.2379 8.76309C65.1201 8.87245 65.0192 8.99865 64.935 9.14167C64.8593 9.28469 64.8215 9.43192 64.8215 9.58336V12.6373C64.8215 12.814 64.8593 12.978 64.935 13.1295C65.0192 13.2725 65.1201 13.3987 65.2379 13.508C65.3641 13.609 65.4987 13.6889 65.6417 13.7478C65.7848 13.8067 65.9194 13.8361 66.0456 13.8361H66.1087C66.176 13.8361 66.2096 13.8698 66.2096 13.9371V15.3379C66.2096 15.4052 66.176 15.4388 66.1087 15.4388H66.0456ZM69.8062 12.6121C69.8062 12.957 69.7305 13.2977 69.579 13.6342C69.436 13.9708 69.2383 14.2736 68.9859 14.5428C68.7335 14.8121 68.4349 15.0308 68.0899 15.1991C67.745 15.3589 67.3748 15.4388 66.9794 15.4388H66.9289C66.8616 15.4388 66.828 15.4052 66.828 15.3379V13.9371C66.828 13.8698 66.8616 13.8361 66.9289 13.8361H66.9794C67.1056 13.8361 67.2402 13.8109 67.3832 13.7604C67.5263 13.7015 67.6567 13.6216 67.7744 13.5207C67.8922 13.4113 67.989 13.2851 68.0647 13.1421C68.1488 12.9906 68.1909 12.8224 68.1909 12.6373V12.5111C68.1909 12.4438 68.2245 12.4101 68.2918 12.4101H69.7052C69.7725 12.4101 69.8062 12.4438 69.8062 12.5111V12.6121ZM68.2918 9.78527C68.2245 9.78527 68.1909 9.75162 68.1909 9.68431V9.58336C68.1909 9.4151 68.1488 9.25945 68.0647 9.11643C67.989 8.965 67.8922 8.8346 67.7744 8.72523C67.6567 8.61586 67.5263 8.53173 67.3832 8.47284C67.2402 8.40553 67.1056 8.37188 66.9794 8.37188H66.9289C66.8616 8.37188 66.828 8.33823 66.828 8.27092V6.88277C66.828 6.82388 66.8616 6.79443 66.9289 6.79443H66.9794C67.3748 6.79443 67.745 6.87856 68.0899 7.04683C68.4349 7.21509 68.7335 7.43382 68.9859 7.70304C69.2383 7.96385 69.436 8.26251 69.579 8.59903C69.7305 8.92714 69.8062 9.25945 69.8062 9.59598V9.68431C69.8062 9.75162 69.7725 9.78527 69.7052 9.78527H68.2918Z" fill="white"/>
<path d="M59.9542 15.3886C59.8869 15.3886 59.8532 15.355 59.8532 15.2877V11.9309H58.831C58.7637 11.9309 58.7301 11.8972 58.7301 11.8299V10.366C58.7301 10.2987 58.7637 10.2651 58.831 10.2651H59.8532V6.84517C59.8532 6.78628 59.8869 6.75684 59.9542 6.75684H61.4685C61.5358 6.75684 61.5695 6.78628 61.5695 6.84517V15.2877C61.5695 15.355 61.5358 15.3886 61.4685 15.3886H59.9542ZM58.0991 11.8299C58.0991 11.8972 58.0655 11.9309 57.9982 11.9309H56.875V15.2877C56.875 15.355 56.8414 15.3886 56.7741 15.3886H55.3354C55.2681 15.3886 55.2345 15.355 55.2345 15.2877V6.84517C55.2345 6.78628 55.2681 6.75684 55.3354 6.75684H56.7741C56.8414 6.75684 56.875 6.78628 56.875 6.84517V10.2651H57.9982C58.0655 10.2651 58.0991 10.2987 58.0991 10.366V11.8299Z" fill="white"/>
<path d="M52.3807 15.4012C52.3386 15.4012 52.3092 15.3759 52.2923 15.3254L49.7053 6.85772C49.6885 6.83248 49.6885 6.80724 49.7053 6.782C49.7306 6.75676 49.7642 6.74414 49.8063 6.74414H51.2954C51.3459 6.74414 51.3795 6.76938 51.3963 6.81986L54.0212 15.275C54.038 15.3591 54.0044 15.4012 53.9203 15.4012H52.3807ZM48.9103 13.8868C48.843 14.1224 48.7673 14.3621 48.6831 14.6061C48.6074 14.8501 48.5359 15.0899 48.4686 15.3254C48.4518 15.3759 48.4181 15.4012 48.3677 15.4012H46.8407C46.7986 15.4012 46.765 15.3885 46.7397 15.3633C46.7229 15.3381 46.7229 15.3086 46.7397 15.275L49.0744 7.70323C49.0912 7.65275 49.1248 7.62751 49.1753 7.62751C49.2258 7.62751 49.2594 7.65275 49.2763 7.70323L50.0461 10.1514L49.3772 12.2336H50.5887C50.6392 12.2336 50.6728 12.2589 50.6897 12.3094L51.1313 13.7606C51.1482 13.7943 51.144 13.8237 51.1187 13.849C51.1019 13.8742 51.0724 13.8868 51.0304 13.8868H48.9103Z" fill="white"/>
<path d="M45.6662 9.20496C45.6662 9.5583 45.582 9.878 45.4138 10.164C45.2455 10.4417 45.0646 10.6562 44.8711 10.8076C45.2077 11.0264 45.4516 11.304 45.6031 11.6405C45.7545 11.9771 45.8302 12.3346 45.8302 12.7132C45.8302 13.1254 45.7671 13.4956 45.6409 13.8237C45.5147 14.1518 45.3381 14.4337 45.1109 14.6692C44.8838 14.8964 44.6061 15.0731 44.278 15.1992C43.9583 15.3254 43.5966 15.3885 43.1927 15.3885H41.9686C41.9013 15.3885 41.8677 15.3549 41.8677 15.2876V13.9247C41.8677 13.8574 41.9013 13.8237 41.9686 13.8237H43.2937C43.5629 13.8237 43.7859 13.7186 43.9625 13.5082C44.1476 13.2979 44.2402 13.0581 44.2402 12.7889V12.7258C44.2402 12.5996 44.2149 12.4734 44.1644 12.3472C44.1224 12.221 44.0593 12.1075 43.9751 12.0065C43.891 11.9055 43.7901 11.8256 43.6723 11.7667C43.5545 11.7078 43.4283 11.6784 43.2937 11.6784H41.9686C41.9013 11.6784 41.8677 11.6447 41.8677 11.5774V10.1767C41.8677 10.1178 41.9013 10.0883 41.9686 10.0883H43.1675C43.462 10.0883 43.6849 10.0084 43.8363 9.84855C43.9962 9.6887 44.0761 9.491 44.0761 9.25543V9.17972C44.0761 8.96098 44.0046 8.77168 43.8616 8.61184C43.7186 8.45199 43.4872 8.37206 43.1675 8.37206H41.9686C41.9013 8.37206 41.8677 8.33841 41.8677 8.27111V6.83248C41.8677 6.77359 41.9013 6.74414 41.9686 6.74414H43.0539C43.8616 6.74414 44.4968 6.95447 44.9595 7.37512C45.4306 7.79577 45.6662 8.40572 45.6662 9.20496ZM41.2367 15.2876C41.2367 15.3549 41.2031 15.3885 41.1357 15.3885H39.6593C39.6004 15.3885 39.5709 15.3549 39.5709 15.2876V6.83248C39.5709 6.77359 39.6004 6.74414 39.6593 6.74414H41.1357C41.2031 6.74414 41.2367 6.77359 41.2367 6.83248V15.2876Z" fill="white"/>
<path d="M30.9394 13.849C30.9394 13.7816 30.9731 13.748 31.0404 13.748H31.684L33.5391 7.70323C33.5559 7.65275 33.5895 7.62751 33.64 7.62751C33.6905 7.62751 33.7241 7.65275 33.741 7.70323L34.5234 10.1514L33.4255 13.748H38.5616C38.6289 13.748 38.6626 13.7816 38.6626 13.849V15.2876C38.6626 15.3549 38.6289 15.3885 38.5616 15.3885H31.0404C30.9731 15.3885 30.9394 15.3549 30.9394 15.2876V13.849ZM36.1892 13.1801C36.1387 13.1801 36.105 13.1549 36.0882 13.1044L34.17 6.85772C34.1532 6.83248 34.1532 6.80724 34.17 6.782C34.1953 6.75676 34.2289 6.74414 34.271 6.74414H35.7727C35.8232 6.74414 35.8568 6.76938 35.8737 6.81986L37.8171 13.0539C37.8339 13.0876 37.8297 13.117 37.8045 13.1423C37.7876 13.1675 37.7582 13.1801 37.7161 13.1801H36.1892Z" fill="white"/>
<path d="M28.8176 15.4012C28.7755 15.4012 28.7461 15.3759 28.7292 15.3254L26.1422 6.85772C26.1254 6.83248 26.1254 6.80724 26.1422 6.782C26.1675 6.75676 26.2011 6.74414 26.2432 6.74414H27.7323C27.7828 6.74414 27.8164 6.76938 27.8332 6.81986L30.4581 15.275C30.4749 15.3591 30.4413 15.4012 30.3572 15.4012H28.8176ZM25.3472 13.8868C25.2799 14.1224 25.2042 14.3621 25.12 14.6061C25.0443 14.8501 24.9728 15.0899 24.9055 15.3254C24.8887 15.3759 24.855 15.4012 24.8045 15.4012H23.2776C23.2355 15.4012 23.2019 15.3885 23.1766 15.3633C23.1598 15.3381 23.1598 15.3086 23.1766 15.275L25.5112 7.70323C25.5281 7.65275 25.5617 7.62751 25.6122 7.62751C25.6627 7.62751 25.6963 7.65275 25.7132 7.70323L26.4829 10.1514L25.8141 12.2336H27.0256C27.0761 12.2336 27.1097 12.2589 27.1265 12.3094L27.5682 13.7606C27.5851 13.7943 27.5808 13.8237 27.5556 13.849C27.5388 13.8742 27.5093 13.8868 27.4673 13.8868H25.3472Z" fill="white"/>
<path d="M11.9784 11.1872C11.9784 12.2975 11.0783 13.1975 9.96804 13.1975C8.85773 13.1975 7.95764 12.2975 7.95764 11.1872C7.95764 10.0768 8.85773 9.17676 9.96804 9.17676C11.0783 9.17676 11.9784 10.0768 11.9784 11.1872Z" fill="white"/>
<path d="M9.38303 5.4502H10.5531V17.8656H9.38303V5.4502Z" fill="white"/>
<path d="M14.3561 7.42627L14.9712 8.42158L4.40987 14.9485L3.79477 13.9531L14.3561 7.42627Z" fill="white"/>
<path d="M4.40662 8.4209L5.02179 7.42563L15.5827 13.9533L14.9675 14.9485L4.40662 8.4209Z" fill="white"/>
<path d="M12.8157 3.63776C12.8157 5.21051 11.5408 6.48548 9.96802 6.48548C8.39527 6.48548 7.1203 5.21051 7.1203 3.63776C7.1203 2.06501 8.39527 0.790039 9.96802 0.790039C11.5408 0.790039 12.8157 2.06501 12.8157 3.63776Z" fill="#DC7C44"/>
<path d="M12.8157 18.7369C12.8157 20.3096 11.5408 21.5846 9.96802 21.5846C8.39527 21.5846 7.1203 20.3096 7.1203 18.7369C7.1203 17.1641 8.39527 15.8892 9.96802 15.8892C11.5408 15.8892 12.8157 17.1641 12.8157 18.7369Z" fill="#4C8EAA"/>
<path d="M5.71314 7.16657C5.71314 8.73932 4.43817 10.0143 2.86542 10.0143C1.29267 10.0143 0.0177002 8.73932 0.0177002 7.16657C0.0177002 5.59382 1.29267 4.31885 2.86542 4.31885C4.43817 4.31885 5.71314 5.59382 5.71314 7.16657Z" fill="#EDB444"/>
<path d="M19.4862 7.16657C19.4862 8.73932 18.2112 10.0143 16.6385 10.0143C15.0657 10.0143 13.7908 8.73932 13.7908 7.16657C13.7908 5.59382 15.0657 4.31885 16.6385 4.31885C18.2112 4.31885 19.4862 5.59382 19.4862 7.16657Z" fill="#BA557B"/>
<path d="M5.71314 14.5059C5.71314 16.0787 4.43817 17.3536 2.86542 17.3536C1.29267 17.3536 0.0177002 16.0787 0.0177002 14.5059C0.0177002 12.9332 1.29267 11.6582 2.86542 11.6582C4.43817 11.6582 5.71314 12.9332 5.71314 14.5059Z" fill="#D24A43"/>
<path d="M19.4862 14.5059C19.4862 16.0787 18.2112 17.3536 16.6385 17.3536C15.0657 17.3536 13.7908 16.0787 13.7908 14.5059C13.7908 12.9332 15.0657 11.6582 16.6385 11.6582C18.2112 11.6582 19.4862 12.9332 19.4862 14.5059Z" fill="#4C679B"/>
</svg>
