<svg width="167" height="35" viewBox="0 0 167 35" fill="none" xmlns="http://www.w3.org/2000/svg">
<path d="M66.5672 28.1504V10.6958H73.7775C75.0843 10.6958 76.2121 10.9316 77.161 11.4032C78.1155 11.8691 78.8513 12.5396 79.3684 13.4146C79.8854 14.2839 80.1439 15.3152 80.1439 16.5083C80.1439 17.7186 79.8797 18.747 79.3513 19.5936C78.8229 20.4345 78.0729 21.0765 77.1013 21.5197C76.1297 21.9572 74.9792 22.176 73.6496 22.176H69.09V18.8521H72.8655C73.5019 18.8521 74.0331 18.7697 74.4593 18.6049C74.8911 18.4345 75.2178 18.1788 75.4394 17.8379C75.661 17.4913 75.7718 17.0481 75.7718 16.5083C75.7718 15.9686 75.661 15.5225 75.4394 15.1703C75.2178 14.8123 74.8911 14.5453 74.4593 14.3691C74.0275 14.1873 73.4962 14.0964 72.8655 14.0964H70.786V28.1504H66.5672ZM76.3939 20.1731L80.7405 28.1504H76.1383L71.8769 20.1731H76.3939ZM86.1482 28.372C85.313 28.372 84.5715 28.2328 83.9238 27.9544C83.2817 27.6703 82.7732 27.2441 82.3982 26.676C82.0289 26.1021 81.8442 25.3833 81.8442 24.5197C81.8442 23.7924 81.9721 23.1788 82.2277 22.6788C82.4834 22.1788 82.8357 21.7725 83.2846 21.46C83.7334 21.1475 84.2505 20.9118 84.8357 20.7527C85.4209 20.5879 86.0459 20.4771 86.7107 20.4203C87.455 20.3521 88.0545 20.2811 88.509 20.2072C88.9635 20.1277 89.2931 20.0169 89.4976 19.8748C89.7079 19.7271 89.813 19.5197 89.813 19.2527V19.21C89.813 18.7725 89.6624 18.4345 89.3613 18.1958C89.0601 17.9572 88.6539 17.8379 88.1425 17.8379C87.5914 17.8379 87.1482 17.9572 86.813 18.1958C86.4778 18.4345 86.2647 18.764 86.1738 19.1845L82.33 19.0481C82.4437 18.2527 82.7363 17.5424 83.2079 16.9174C83.6851 16.2868 84.3385 15.7924 85.1681 15.4345C86.0033 15.0708 87.0062 14.889 88.1766 14.889C89.0118 14.889 89.7817 14.9885 90.4863 15.1873C91.1908 15.3805 91.8045 15.6646 92.3272 16.0396C92.8499 16.4089 93.2533 16.8635 93.5374 17.4032C93.8272 17.943 93.9721 18.5595 93.9721 19.2527V28.1504H90.0516V26.3265H89.9493C89.7164 26.7697 89.4181 27.1447 89.0545 27.4515C88.6965 27.7583 88.2732 27.9885 87.7846 28.1419C87.3016 28.2953 86.7562 28.372 86.1482 28.372ZM87.4351 25.6447C87.884 25.6447 88.2874 25.5538 88.6454 25.372C89.009 25.1902 89.2988 24.9402 89.5147 24.622C89.7306 24.2981 89.8385 23.9231 89.8385 23.497V22.2527C89.7192 22.3152 89.5743 22.372 89.4039 22.4231C89.2391 22.4743 89.0573 22.5225 88.8584 22.568C88.6596 22.6135 88.455 22.6532 88.2448 22.6873C88.0346 22.7214 87.8329 22.7527 87.6397 22.7811C87.2476 22.8436 86.9124 22.9402 86.634 23.0708C86.3613 23.2015 86.151 23.372 86.0033 23.5822C85.8613 23.7868 85.7902 24.0311 85.7902 24.3152C85.7902 24.747 85.9437 25.0765 86.2505 25.3038C86.563 25.5311 86.9579 25.6447 87.4351 25.6447ZM100.688 20.6845V28.1504H96.5204V15.0595H100.483V17.4629H100.628C100.918 16.6618 101.412 16.0339 102.111 15.5794C102.81 15.1191 103.643 14.889 104.608 14.889C105.529 14.889 106.327 15.0964 107.003 15.5112C107.685 15.9203 108.214 16.4941 108.589 17.2328C108.969 17.9657 109.157 18.8237 109.151 19.8066V28.1504H104.983V20.6248C104.989 19.8975 104.804 19.3294 104.429 18.9203C104.06 18.5112 103.546 18.3066 102.887 18.3066C102.449 18.3066 102.063 18.4032 101.728 18.5964C101.398 18.7839 101.143 19.0538 100.961 19.4061C100.785 19.7583 100.694 20.1845 100.688 20.6845ZM117.834 33.3322C116.589 33.3322 115.524 33.1589 114.638 32.8123C113.751 32.4657 113.055 31.9913 112.549 31.389C112.044 30.7868 111.74 30.1049 111.638 29.3436L115.584 29.122C115.657 29.389 115.794 29.622 115.993 29.8208C116.197 30.0197 116.461 30.1731 116.785 30.2811C117.115 30.389 117.501 30.443 117.944 30.443C118.643 30.443 119.22 30.2725 119.674 29.9316C120.135 29.5964 120.365 29.0083 120.365 28.1674V25.8663H120.22C120.055 26.2697 119.805 26.6305 119.47 26.9487C119.135 27.2669 118.717 27.5169 118.217 27.6987C117.723 27.8805 117.155 27.9714 116.513 27.9714C115.558 27.9714 114.683 27.7498 113.888 27.3066C113.098 26.8578 112.464 26.1646 111.987 25.2271C111.515 24.2839 111.28 23.0708 111.28 21.5879C111.28 20.0595 111.524 18.801 112.013 17.8123C112.501 16.818 113.14 16.0822 113.93 15.6049C114.726 15.1277 115.581 14.889 116.496 14.889C117.183 14.889 117.771 15.0083 118.26 15.247C118.754 15.4799 119.16 15.7811 119.478 16.1504C119.797 16.5197 120.038 16.9032 120.203 17.301H120.322V15.0595H124.473V28.2015C124.473 29.3095 124.194 30.2441 123.638 31.0055C123.081 31.7669 122.302 32.3436 121.302 32.7356C120.302 33.1333 119.146 33.3322 117.834 33.3322ZM117.961 24.9373C118.467 24.9373 118.899 24.8038 119.257 24.5368C119.615 24.2697 119.89 23.8862 120.084 23.3862C120.277 22.8862 120.373 22.2868 120.373 21.5879C120.373 20.8777 120.277 20.2669 120.084 19.7555C119.896 19.2385 119.621 18.8407 119.257 18.5623C118.899 18.2839 118.467 18.1447 117.961 18.1447C117.444 18.1447 117.007 18.2868 116.649 18.5708C116.291 18.8549 116.018 19.2555 115.831 19.7725C115.649 20.2839 115.558 20.889 115.558 21.5879C115.558 22.2868 115.652 22.8862 115.839 23.3862C116.027 23.8862 116.297 24.2697 116.649 24.5368C117.007 24.8038 117.444 24.9373 117.961 24.9373ZM127.13 28.1504V15.0595H131.297V28.1504H127.13ZM129.218 13.5339C128.633 13.5339 128.13 13.3407 127.709 12.9544C127.289 12.5623 127.079 12.0907 127.079 11.5396C127.079 10.9941 127.289 10.5282 127.709 10.1419C128.13 9.74982 128.633 9.5538 129.218 9.5538C129.809 9.5538 130.312 9.74982 130.726 10.1419C131.147 10.5282 131.357 10.9941 131.357 11.5396C131.357 12.0907 131.147 12.5623 130.726 12.9544C130.312 13.3407 129.809 13.5339 129.218 13.5339ZM136.294 28.3975C135.68 28.3975 135.155 28.1816 134.717 27.7498C134.285 27.318 134.072 26.7953 134.078 26.1816C134.072 25.5794 134.285 25.0652 134.717 24.639C135.155 24.2072 135.68 23.9913 136.294 23.9913C136.873 23.9913 137.385 24.2072 137.828 24.639C138.277 25.0652 138.504 25.5794 138.51 26.1816C138.504 26.5907 138.396 26.9629 138.186 27.2981C137.981 27.6333 137.711 27.9004 137.376 28.0993C137.047 28.2981 136.686 28.3975 136.294 28.3975ZM141.263 28.1504V15.0595H145.311V17.4458H145.447C145.686 16.5822 146.075 15.9402 146.615 15.5197C147.155 15.0936 147.782 14.8805 148.498 14.8805C148.692 14.8805 148.89 14.8947 149.095 14.9231C149.299 14.9458 149.49 14.9828 149.666 15.0339V18.6561C149.467 18.5879 149.206 18.5339 148.882 18.4941C148.564 18.4544 148.28 18.4345 148.03 18.4345C147.535 18.4345 147.089 18.5453 146.692 18.7669C146.299 18.9828 145.99 19.2868 145.763 19.6788C145.541 20.0652 145.43 20.5197 145.43 21.0424V28.1504H141.263ZM159.81 22.4998V15.0595H163.969V28.1504H159.998V25.7129H159.861C159.572 26.514 159.077 27.1504 158.378 27.622C157.685 28.0879 156.847 28.3208 155.864 28.3208C154.972 28.3208 154.188 28.1163 153.512 27.7072C152.836 27.2981 152.31 26.7271 151.935 25.9941C151.56 25.2555 151.37 24.3919 151.364 23.4032V15.0595H155.532V22.585C155.537 23.2953 155.725 23.8549 156.094 24.264C156.464 24.6731 156.966 24.8777 157.603 24.8777C158.018 24.8777 158.39 24.7868 158.719 24.6049C159.054 24.4174 159.319 24.1475 159.512 23.7953C159.711 23.4373 159.81 23.0055 159.81 22.4998Z" fill="white"/>
<path d="M42.924 0.812362L39.1075 3.01589L35.291 5.21941C33.3065 6.36503 33.3065 9.22965 35.291 10.3757L35.5853 10.5456L31.639 17.3811L31.2091 18.126L30.8485 18.7505L30.1344 19.9873C29.798 20.5704 29.0523 20.77 28.4692 20.4336C27.886 20.0968 27.6864 19.3515 28.0228 18.7684L29.5275 16.1622C29.5282 16.1606 29.5306 16.1622 29.5321 16.161L29.6943 15.8804C30.8173 13.9353 30.1507 11.448 28.2057 10.325C26.2606 9.20197 23.7733 9.86853 22.6503 11.8136L16.7581 22.0193L16.3519 22.7225C16.0331 23.2744 15.3271 23.4639 14.7752 23.145C14.2232 22.8262 14.0342 22.1203 14.3526 21.5683L15.4453 19.6758L16.2911 18.211C17.4141 16.2659 16.7476 13.7786 14.8025 12.6556C12.8574 11.5326 10.3701 12.1991 9.24708 14.1442L0.791588 28.7897C-0.331418 30.7348 0.335136 33.2221 2.28022 34.3451C4.22531 35.4681 6.71262 34.8015 7.83562 32.8564L9.64857 29.7166L10.9213 27.5123L10.7614 27.4199C10.2029 27.0976 10.2029 26.2911 10.7614 25.9687L11.8357 25.3486L12.91 24.7284C13.4686 24.406 14.1667 24.8091 14.1667 25.4542V26.6945V27.9349C14.1667 28.5757 13.4779 28.976 12.9213 28.6653L12.634 29.1631L12.6543 29.1748C11.819 31.0521 12.519 33.2954 14.3382 34.3455C16.2833 35.4685 18.7706 34.8019 19.8936 32.8568L23.1044 27.296L24.5104 24.8609L24.4313 24.8153C23.8727 24.4929 23.8727 23.6865 24.4313 23.3641L25.5055 22.7439L26.5798 22.1238C27.1384 21.8014 27.8365 22.2044 27.8365 22.8496V24.0899V25.3302C27.8365 25.9594 27.1727 26.3531 26.6219 26.0732L25.053 28.7905C23.93 30.7356 24.5965 33.2229 26.5416 34.3459C28.4867 35.4689 30.974 34.8023 32.097 32.8572L42.6301 14.6135L42.9244 14.7835C44.9089 15.9291 47.3899 14.497 47.3899 12.2054V7.79753V3.39048C47.3891 1.09886 44.9085 -0.333253 42.924 0.812362Z" fill="#FFD600"/>
<path d="M42.6812 22.1558C43.9156 20.0174 47.0024 20.0174 48.2369 22.1558L50.5243 26.1173L52.8116 30.0788C54.0461 32.2173 52.5029 34.8905 50.0339 34.8905H45.4596H40.8853C38.416 34.8905 36.8728 32.2177 38.1077 30.0788L40.3946 26.1173L42.6812 22.1558Z" fill="white"/>
</svg>
