<svg width="94" height="10" viewBox="0 0 94 10" fill="none" xmlns="http://www.w3.org/2000/svg">
  <path d="M92.3552 9.40116C92.3132 9.40116 92.2837 9.37592 92.2669 9.32544L89.6799 0.857717C89.663 0.832478 89.663 0.807239 89.6799 0.782C89.7051 0.75676 89.7388 0.744141 89.7808 0.744141H91.2699C91.3204 0.744141 91.3541 0.76938 91.3709 0.819858L93.9958 9.27496C94.0126 9.35909 93.9789 9.40116 93.8948 9.40116H92.3552ZM88.8848 7.88681C88.8175 8.12238 88.7418 8.36215 88.6577 8.60613C88.582 8.8501 88.5105 9.08988 88.4432 9.32544C88.4263 9.37592 88.3927 9.40116 88.3422 9.40116H86.8152C86.7732 9.40116 86.7395 9.38854 86.7143 9.3633C86.6975 9.33806 86.6975 9.30861 86.7143 9.27496L89.0489 1.70323C89.0657 1.65275 89.0994 1.62751 89.1499 1.62751C89.2003 1.62751 89.234 1.65275 89.2508 1.70323L90.0206 4.15142L89.3518 6.23365H90.5632C90.6137 6.23365 90.6474 6.25889 90.6642 6.30937L91.1059 7.76062C91.1227 7.79427 91.1185 7.82371 91.0933 7.84895C91.0764 7.87419 91.047 7.88681 91.0049 7.88681H88.8848Z" fill="white" />
  <path d="M84.1385 9.40123C84.0796 9.40123 84.0502 9.36758 84.0502 9.30028V5.32512L85.5267 3.23027C85.5603 3.1882 85.5982 3.17558 85.6402 3.19241C85.6907 3.20924 85.716 3.24289 85.716 3.29337V9.30028C85.716 9.36758 85.6823 9.40123 85.615 9.40123H84.1385ZM79.1538 7.054C79.1201 7.09606 79.0823 7.10868 79.0402 7.09185C78.9981 7.07503 78.9771 7.04138 78.9771 6.9909V0.845172C78.9771 0.786281 79.0108 0.756836 79.0781 0.756836H80.5293C80.5966 0.756836 80.6303 0.786281 80.6303 0.845172V4.94653L79.1538 7.054ZM79.0781 9.40123C79.0108 9.40123 78.9771 9.36758 78.9771 9.30028V8.41691L84.2899 0.794694C84.2984 0.777868 84.311 0.769455 84.3278 0.769455C84.3446 0.761042 84.3615 0.756836 84.3783 0.756836H85.615C85.6823 0.756836 85.716 0.786281 85.716 0.845172V1.86736L80.4536 9.36337C80.4368 9.38861 80.4073 9.40123 80.3653 9.40123H79.0781Z" fill="white" />
  <path d="M70.4087 7.84895C70.4087 7.78165 70.4424 7.748 70.5097 7.748H71.1533L73.0084 1.70323C73.0252 1.65275 73.0588 1.62751 73.1093 1.62751C73.1598 1.62751 73.1934 1.65275 73.2103 1.70323L73.9927 4.15142L72.8948 7.748H78.0309C78.0982 7.748 78.1319 7.78165 78.1319 7.84895V9.28758C78.1319 9.35489 78.0982 9.38854 78.0309 9.38854H70.5097C70.4424 9.38854 70.4087 9.35489 70.4087 9.28758V7.84895ZM75.6585 7.18012C75.608 7.18012 75.5743 7.15488 75.5575 7.1044L73.6393 0.857717C73.6225 0.832478 73.6225 0.807239 73.6393 0.782C73.6646 0.75676 73.6982 0.744141 73.7403 0.744141H75.242C75.2925 0.744141 75.3261 0.76938 75.343 0.819858L77.2864 7.05392C77.3032 7.08757 77.299 7.11702 77.2738 7.14226C77.2569 7.1675 77.2275 7.18012 77.1854 7.18012H75.6585Z" fill="white" />
  <path d="M64.0812 9.38861C64.0139 9.38861 63.9802 9.35496 63.9802 9.28766V0.845172C63.9802 0.786281 64.0139 0.756836 64.0812 0.756836H65.5829C65.6502 0.756836 65.6839 0.786281 65.6839 0.845172V9.28766C65.6839 9.35496 65.6502 9.38861 65.5829 9.38861H64.0812ZM66.4284 9.38861C66.3611 9.38861 66.3275 9.35496 66.3275 9.28766V7.83641C66.3275 7.7691 66.3611 7.73545 66.4284 7.73545H69.7095C69.7768 7.73545 69.8105 7.7691 69.8105 7.83641V9.28766C69.8105 9.35496 69.7768 9.38861 69.7095 9.38861H66.4284ZM66.4284 2.41C66.3611 2.41 66.3275 2.37635 66.3275 2.30904V0.845172C66.3275 0.786281 66.3611 0.756836 66.4284 0.756836H69.7095C69.7768 0.756836 69.8105 0.786281 69.8105 0.845172V2.30904C69.8105 2.37635 69.7768 2.41 69.7095 2.41H66.4284ZM68.8892 4.26507C68.9565 4.26507 68.9902 4.29873 68.9902 4.36603V5.81728C68.9902 5.88458 68.9565 5.91824 68.8892 5.91824H66.4284C66.3611 5.91824 66.3275 5.88458 66.3275 5.81728V4.36603C66.3275 4.29873 66.3611 4.26507 66.4284 4.26507H68.8892Z" fill="white" />
  <path d="M60.7304 9.38861C60.6715 9.38861 60.6421 9.35496 60.6421 9.28766V3.64672L60.2887 4.13888C60.2719 4.16412 60.2467 4.17674 60.213 4.17674C60.1878 4.16832 60.1668 4.1557 60.1499 4.13888L59.2539 2.96526C59.2287 2.92319 59.2287 2.88113 59.2539 2.83906L60.7809 0.794694C60.8061 0.769455 60.8314 0.756836 60.8566 0.756836H62.1817C62.249 0.756836 62.2826 0.786281 62.2826 0.845172V9.28766C62.2826 9.35496 62.249 9.38861 62.1817 9.38861H60.7304ZM55.4302 9.38861C55.3629 9.38861 55.3293 9.35496 55.3293 9.28766V2.88954C55.3293 2.83906 55.3503 2.80541 55.3924 2.78859C55.4344 2.77176 55.4723 2.78438 55.5059 2.82644L56.9824 4.76986V9.28766C56.9824 9.35496 56.9488 9.38861 56.8815 9.38861H55.4302ZM58.888 6.01919C58.8711 6.05284 58.8459 6.06967 58.8123 6.06967C58.7786 6.06967 58.7534 6.05284 58.7365 6.01919L55.3293 1.48877V0.845172C55.3293 0.786281 55.3629 0.756836 55.4302 0.756836H56.73C56.7553 0.756836 56.7805 0.769455 56.8057 0.794694L59.7587 4.70676C59.784 4.74882 59.784 4.79089 59.7587 4.83295L58.888 6.01919Z" fill="white" />
  <path d="M48.8074 4.9337C48.8074 4.89164 48.8242 4.87061 48.8578 4.87061H53.1485C53.1906 4.87061 53.2116 4.89164 53.2116 4.9337V6.29662C53.2116 6.33027 53.1906 6.34709 53.1485 6.34709H48.8578C48.8242 6.34709 48.8074 6.33027 48.8074 6.29662V4.9337Z" fill="white" />
  <path d="M43.0456 9.43883C42.6501 9.43883 42.28 9.35891 41.935 9.19906C41.5901 9.0308 41.2914 8.81206 41.0391 8.54284C40.7867 8.27363 40.5847 7.97076 40.4333 7.63424C40.2903 7.29771 40.2188 6.95699 40.2188 6.61205V3.59598C40.2188 3.25945 40.2903 2.92714 40.4333 2.59903C40.5847 2.26251 40.7867 1.96385 41.0391 1.70304C41.2999 1.43382 41.6027 1.21509 41.9477 1.04683C42.2926 0.878564 42.6586 0.794434 43.0456 0.794434H43.1087C43.176 0.794434 43.2096 0.823879 43.2096 0.882771V2.27092C43.2096 2.33823 43.176 2.37188 43.1087 2.37188H43.0456C42.9194 2.37188 42.7848 2.40974 42.6417 2.48545C42.4987 2.55276 42.3641 2.6453 42.2379 2.76309C42.1201 2.87245 42.0192 2.99865 41.935 3.14167C41.8593 3.28469 41.8215 3.43192 41.8215 3.58336V6.63729C41.8215 6.81396 41.8593 6.97802 41.935 7.12945C42.0192 7.27247 42.1201 7.39867 42.2379 7.50804C42.3641 7.609 42.4987 7.68892 42.6417 7.74781C42.7848 7.8067 42.9194 7.83615 43.0456 7.83615H43.1087C43.176 7.83615 43.2096 7.8698 43.2096 7.9371V9.33788C43.2096 9.40518 43.176 9.43883 43.1087 9.43883H43.0456ZM46.8062 6.61205C46.8062 6.95699 46.7305 7.29771 46.579 7.63424C46.436 7.97076 46.2383 8.27363 45.9859 8.54284C45.7335 8.81206 45.4349 9.0308 45.0899 9.19906C44.745 9.35891 44.3748 9.43883 43.9794 9.43883H43.9289C43.8616 9.43883 43.828 9.40518 43.828 9.33788V7.9371C43.828 7.8698 43.8616 7.83615 43.9289 7.83615H43.9794C44.1056 7.83615 44.2402 7.81091 44.3832 7.76043C44.5263 7.70154 44.6567 7.62162 44.7744 7.52066C44.8922 7.41129 44.989 7.28509 45.0647 7.14207C45.1488 6.99064 45.1909 6.82238 45.1909 6.63729V6.51109C45.1909 6.44379 45.2245 6.41014 45.2918 6.41014H46.7052C46.7725 6.41014 46.8062 6.44379 46.8062 6.51109V6.61205ZM45.2918 3.78527C45.2245 3.78527 45.1909 3.75162 45.1909 3.68431V3.58336C45.1909 3.4151 45.1488 3.25945 45.0647 3.11643C44.989 2.965 44.8922 2.8346 44.7744 2.72523C44.6567 2.61586 44.5263 2.53173 44.3832 2.47284C44.2402 2.40553 44.1056 2.37188 43.9794 2.37188H43.9289C43.8616 2.37188 43.828 2.33823 43.828 2.27092V0.882771C43.828 0.823879 43.8616 0.794434 43.9289 0.794434H43.9794C44.3748 0.794434 44.745 0.878564 45.0899 1.04683C45.4349 1.21509 45.7335 1.43382 45.9859 1.70304C46.2383 1.96385 46.436 2.26251 46.579 2.59903C46.7305 2.92714 46.8062 3.25945 46.8062 3.59598V3.68431C46.8062 3.75162 46.7725 3.78527 46.7052 3.78527H45.2918Z" fill="white" />
  <path d="M36.9542 9.38861C36.8869 9.38861 36.8532 9.35496 36.8532 9.28766V5.93086H35.831C35.7637 5.93086 35.7301 5.8972 35.7301 5.8299V4.36603C35.7301 4.29873 35.7637 4.26507 35.831 4.26507H36.8532V0.845172C36.8532 0.786281 36.8869 0.756836 36.9542 0.756836H38.4685C38.5358 0.756836 38.5695 0.786281 38.5695 0.845172V9.28766C38.5695 9.35496 38.5358 9.38861 38.4685 9.38861H36.9542ZM35.0991 5.8299C35.0991 5.8972 35.0655 5.93086 34.9982 5.93086H33.875V9.28766C33.875 9.35496 33.8414 9.38861 33.7741 9.38861H32.3354C32.2681 9.38861 32.2345 9.35496 32.2345 9.28766V0.845172C32.2345 0.786281 32.2681 0.756836 32.3354 0.756836H33.7741C33.8414 0.756836 33.875 0.786281 33.875 0.845172V4.26507H34.9982C35.0655 4.26507 35.0991 4.29873 35.0991 4.36603V5.8299Z" fill="white" />
  <path d="M29.3807 9.40116C29.3386 9.40116 29.3092 9.37592 29.2923 9.32544L26.7053 0.857717C26.6885 0.832478 26.6885 0.807239 26.7053 0.782C26.7306 0.75676 26.7642 0.744141 26.8063 0.744141H28.2954C28.3459 0.744141 28.3795 0.76938 28.3963 0.819858L31.0212 9.27496C31.038 9.35909 31.0044 9.40116 30.9203 9.40116H29.3807ZM25.9103 7.88681C25.843 8.12238 25.7673 8.36215 25.6831 8.60613C25.6074 8.8501 25.5359 9.08988 25.4686 9.32544C25.4518 9.37592 25.4181 9.40116 25.3677 9.40116H23.8407C23.7986 9.40116 23.765 9.38854 23.7397 9.3633C23.7229 9.33806 23.7229 9.30861 23.7397 9.27496L26.0744 1.70323C26.0912 1.65275 26.1248 1.62751 26.1753 1.62751C26.2258 1.62751 26.2594 1.65275 26.2763 1.70323L27.0461 4.15142L26.3772 6.23365H27.5887C27.6392 6.23365 27.6728 6.25889 27.6897 6.30937L28.1313 7.76062C28.1482 7.79427 28.144 7.82371 28.1187 7.84895C28.1019 7.87419 28.0724 7.88681 28.0304 7.88681H25.9103Z" fill="white" />
  <path d="M22.6662 3.20496C22.6662 3.5583 22.582 3.878 22.4138 4.16404C22.2455 4.44167 22.0646 4.6562 21.8711 4.80764C22.2077 5.02638 22.4516 5.30401 22.6031 5.64053C22.7545 5.97705 22.8302 6.33461 22.8302 6.71319C22.8302 7.12543 22.7671 7.4956 22.6409 7.82371C22.5147 8.15182 22.3381 8.43366 22.1109 8.66922C21.8838 8.89638 21.6061 9.07305 21.278 9.19925C20.9583 9.32544 20.5966 9.38854 20.1927 9.38854H18.9686C18.9013 9.38854 18.8677 9.35489 18.8677 9.28758V7.92467C18.8677 7.85737 18.9013 7.82371 18.9686 7.82371H20.2937C20.5629 7.82371 20.7859 7.71855 20.9625 7.50822C21.1476 7.2979 21.2402 7.05813 21.2402 6.78891V6.72581C21.2402 6.59962 21.2149 6.47342 21.1644 6.34723C21.1224 6.22103 21.0593 6.10745 20.9751 6.0065C20.891 5.90554 20.7901 5.82562 20.6723 5.76673C20.5545 5.70783 20.4283 5.67839 20.2937 5.67839H18.9686C18.9013 5.67839 18.8677 5.64474 18.8677 5.57743V4.17666C18.8677 4.11777 18.9013 4.08832 18.9686 4.08832H20.1675C20.462 4.08832 20.6849 4.0084 20.8363 3.84855C20.9962 3.6887 21.0761 3.491 21.0761 3.25543V3.17972C21.0761 2.96098 21.0046 2.77168 20.8616 2.61184C20.7186 2.45199 20.4872 2.37206 20.1675 2.37206H18.9686C18.9013 2.37206 18.8677 2.33841 18.8677 2.27111V0.832478C18.8677 0.773586 18.9013 0.744141 18.9686 0.744141H20.0539C20.8616 0.744141 21.4968 0.954467 21.9595 1.37512C22.4306 1.79577 22.6662 2.40572 22.6662 3.20496ZM18.2367 9.28758C18.2367 9.35489 18.2031 9.38854 18.1357 9.38854H16.6593C16.6004 9.38854 16.5709 9.35489 16.5709 9.28758V0.832478C16.5709 0.773586 16.6004 0.744141 16.6593 0.744141H18.1357C18.2031 0.744141 18.2367 0.773586 18.2367 0.832478V9.28758Z" fill="white" />
  <path d="M7.93942 7.84895C7.93942 7.78165 7.97308 7.748 8.04038 7.748H8.68398L10.5391 1.70323C10.5559 1.65275 10.5895 1.62751 10.64 1.62751C10.6905 1.62751 10.7241 1.65275 10.741 1.70323L11.5234 4.15142L10.4255 7.748H15.5616C15.6289 7.748 15.6626 7.78165 15.6626 7.84895V9.28758C15.6626 9.35489 15.6289 9.38854 15.5616 9.38854H8.04038C7.97308 9.38854 7.93942 9.35489 7.93942 9.28758V7.84895ZM13.1892 7.18012C13.1387 7.18012 13.105 7.15488 13.0882 7.1044L11.17 0.857717C11.1532 0.832478 11.1532 0.807239 11.17 0.782C11.1953 0.75676 11.2289 0.744141 11.271 0.744141H12.7727C12.8232 0.744141 12.8568 0.76938 12.8737 0.819858L14.8171 7.05392C14.8339 7.08757 14.8297 7.11702 14.8045 7.14226C14.7876 7.1675 14.7582 7.18012 14.7161 7.18012H13.1892Z" fill="white" />
  <path d="M5.81756 9.40116C5.7755 9.40116 5.74605 9.37592 5.72923 9.32544L3.14222 0.857717C3.12539 0.832478 3.12539 0.807239 3.14222 0.782C3.16746 0.75676 3.20111 0.744141 3.24317 0.744141H4.73228C4.78276 0.744141 4.81641 0.76938 4.83324 0.819858L7.45811 9.27496C7.47493 9.35909 7.44128 9.40116 7.35715 9.40116H5.81756ZM2.34719 7.88681C2.27988 8.12238 2.20416 8.36215 2.12003 8.60613C2.04432 8.8501 1.97281 9.08988 1.9055 9.32544C1.88867 9.37592 1.85502 9.40116 1.80454 9.40116H0.277578C0.235512 9.40116 0.20186 9.38854 0.176621 9.3633C0.159795 9.33806 0.159795 9.30861 0.176621 9.27496L2.51124 1.70323C2.52807 1.65275 2.56172 1.62751 2.6122 1.62751C2.66267 1.62751 2.69633 1.65275 2.71315 1.70323L3.48295 4.15142L2.81411 6.23365H4.02559C4.07607 6.23365 4.10972 6.25889 4.12654 6.30937L4.56823 7.76062C4.58505 7.79427 4.58085 7.82371 4.55561 7.84895C4.53878 7.87419 4.50934 7.88681 4.46727 7.88681H2.34719Z" fill="white" />
</svg>